<?xml version="1.0" standalone="no"?>
<!DOCTYPE svg PUBLIC "-//W3C//DTD SVG 20010904//EN"
 "http://www.w3.org/TR/2001/REC-SVG-20010904/DTD/svg10.dtd">
<svg version="1.0" xmlns="http://www.w3.org/2000/svg"
 width="816.000000pt" height="816.000000pt" viewBox="0 0 816.000000 816.000000"
 preserveAspectRatio="xMidYMid meet">
<metadata>
Created by potrace 1.14, written by Peter Selinger 2001-2017
</metadata>
<g transform="translate(0.000000,816.000000) scale(0.100000,-0.100000)"
fill="#000000" stroke="none">
<path d="M1435 8150 c7 -12 10 -128 3 -135 -3 -3 -2 -23 2 -45 4 -21 4 -44 0
-50 -4 -7 -4 -27 0 -46 5 -20 4 -34 -2 -34 -5 0 -7 -4 -3 -10 7 -12 10 -128 3
-135 -3 -3 -2 -23 2 -45 4 -21 4 -44 0 -50 -4 -7 -4 -27 0 -46 5 -20 4 -34 -2
-34 -5 0 -7 -4 -3 -10 7 -12 10 -128 3 -135 -3 -3 -2 -23 2 -45 4 -21 4 -44 0
-50 -4 -7 -4 -27 0 -46 5 -20 4 -34 -2 -34 -5 0 -7 -4 -3 -10 7 -12 10 -128 3
-135 -3 -3 -2 -23 2 -45 4 -21 4 -44 0 -50 -4 -7 -4 -26 0 -44 4 -17 5 -40 4
-51 -4 -19 -7 -211 -4 -227 2 -13 1 -147 -1 -155 -1 -5 -1 -12 1 -18 2 -14 3
-138 0 -150 -9 -38 7 -44 38 -15 12 11 26 20 32 20 5 0 10 5 10 10 0 6 5 10
10 10 6 0 35 18 65 40 30 22 58 40 64 40 5 0 11 4 13 8 2 5 37 31 78 58 41 27
77 51 80 54 3 3 20 15 37 28 l33 22 226 -150 c124 -83 231 -153 237 -156 9 -3
12 80 12 338 l0 343 418 1 417 1 1 -21 c0 -11 1 -168 1 -348 l1 -327 21 11
c12 6 23 14 26 17 3 3 59 42 125 86 66 44 124 84 130 88 69 53 171 115 179
108 6 -4 49 -36 96 -71 47 -35 87 -66 90 -69 3 -3 12 -10 21 -16 9 -5 42 -29
72 -52 31 -24 61 -43 66 -43 11 0 69 38 95 61 26 24 40 34 79 58 21 13 43 28
50 35 6 7 35 27 62 46 28 19 56 40 63 47 8 7 19 10 25 6 15 -8 303 -203 382
-258 33 -23 65 -45 72 -48 8 -5 11 28 11 125 0 73 1 138 2 143 1 6 1 15 0 20
-6 24 -5 62 2 81 4 12 4 25 1 28 -8 8 -7 181 1 194 4 7 3 12 -1 12 -5 0 -8 12
-7 28 1 15 3 34 3 43 1 14 46 15 416 16 304 1 415 -2 416 -11 1 -6 2 -159 3
-341 1 -231 5 -329 13 -328 6 1 112 70 237 153 l226 152 38 -29 c20 -15 45
-32 54 -38 10 -5 41 -27 70 -47 131 -90 290 -198 294 -198 2 0 4 423 4 940 l0
940 -465 0 c-406 0 -465 -2 -466 -15 -4 -48 -3 -77 3 -81 3 -2 3 -17 -1 -32
-4 -15 -6 -43 -4 -62 5 -42 5 -44 0 -98 -2 -24 0 -45 4 -48 4 -2 4 -17 0 -32
-4 -15 -6 -43 -4 -62 2 -19 4 -41 3 -47 0 -7 -1 -40 -2 -73 -2 -33 1 -60 5
-60 5 0 5 -5 1 -11 -4 -7 -6 -43 -6 -80 1 -59 -1 -69 -16 -70 -55 -3 -790 -4
-803 -1 -14 3 -16 44 -16 385 l0 382 -833 3 c-493 1 -836 -2 -839 -7 -3 -5 -6
-177 -5 -383 0 -205 -3 -375 -7 -378 -6 -4 -743 -5 -810 -1 -14 1 -16 41 -16
384 l0 382 -472 3 c-303 1 -470 -1 -466 -8z"/>
<path d="M1740 6005 c-85 -58 -162 -109 -170 -115 -8 -5 -40 -27 -70 -48 l-55
-38 -5 -63 c-3 -34 -3 -64 -1 -66 5 -6 4 -145 -2 -151 -2 -2 -1 -22 3 -43 4
-20 5 -46 4 -56 -3 -23 -6 -77 -5 -88 1 -7 335 214 433 287 l28 20 147 -99
c82 -55 150 -103 151 -107 2 -5 8 -8 12 -8 9 0 111 -67 139 -91 9 -8 15 -8 20
-1 3 5 6 112 5 237 l-1 227 -234 154 c-129 85 -236 154 -239 153 -3 0 -75 -47
-160 -104z"/>
<path d="M6020 6002 c-91 -59 -180 -117 -197 -127 -18 -11 -33 -23 -33 -27 0
-4 -5 -8 -11 -8 -6 0 -23 -9 -38 -19 l-26 -19 0 -233 c1 -180 4 -233 13 -231
7 1 70 41 140 89 332 226 312 214 333 202 38 -20 274 -183 277 -191 2 -4 9 -8
15 -8 7 0 36 -18 65 -40 29 -22 57 -40 62 -40 6 0 10 -4 10 -10 0 -5 5 -10 10
-10 6 0 10 86 10 238 l-1 237 -226 150 c-124 83 -228 151 -232 153 -4 1 -81
-46 -171 -106z"/>
<path d="M3615 6058 c-33 -22 -134 -90 -225 -152 -91 -61 -167 -112 -170 -114
-6 -5 -9 -482 -2 -482 2 0 30 17 61 38 31 22 92 63 136 93 44 30 82 56 85 59
12 13 178 120 185 120 7 0 93 -61 130 -93 6 -4 51 -38 100 -74 50 -37 96 -73
103 -80 17 -17 28 -11 167 92 199 146 215 157 230 151 14 -5 124 -79 377 -253
43 -29 80 -53 82 -53 3 0 5 8 5 18 1 9 1 24 1 32 0 8 0 60 -1 116 -1 55 1 106
5 112 4 7 3 12 -1 12 -9 0 -8 73 1 96 3 7 2 16 -3 18 -4 3 -6 18 -4 33 4 36
-7 49 -92 103 -38 24 -72 47 -75 50 -12 13 -297 200 -304 200 -4 0 -18 -8 -31
-17 -12 -10 -33 -25 -45 -33 -12 -8 -45 -32 -73 -53 -29 -20 -62 -44 -74 -53
-123 -89 -147 -103 -157 -91 -6 7 -51 42 -101 77 -49 36 -94 68 -100 73 -35
28 -136 97 -142 96 -5 0 -35 -18 -68 -41z"/>
<path d="M1685 5019 c-116 -77 -218 -148 -227 -157 -12 -12 -17 -35 -18 -77
-1 -33 -1 -63 0 -67 2 -11 1 -146 -1 -155 -1 -9 1 -50 5 -77 1 -10 -1 -38 -4
-62 -4 -24 -5 -44 -3 -44 5 0 334 221 343 230 3 3 30 22 61 43 56 37 79 45 79
27 0 -5 5 -10 11 -10 10 0 97 -57 109 -71 3 -3 16 -12 29 -19 14 -7 30 -17 35
-22 6 -5 47 -32 91 -61 44 -28 82 -54 85 -57 13 -14 90 -59 91 -53 0 5 1 111
2 238 l2 229 -232 153 c-128 84 -236 153 -240 153 -5 0 -103 -63 -218 -141z"/>
<path d="M6117 5115 c-38 -25 -73 -45 -77 -45 -5 0 -10 -4 -12 -8 -1 -4 -72
-52 -155 -106 -84 -55 -154 -102 -154 -105 -5 -23 -3 -471 2 -471 3 0 25 14
47 30 23 17 46 30 51 30 5 0 11 4 13 8 3 8 346 242 354 242 3 0 66 -42 141
-92 74 -51 143 -98 152 -103 9 -6 51 -34 94 -63 l77 -53 0 238 0 238 -67 45
c-37 25 -72 47 -78 50 -14 7 -69 43 -75 50 -6 6 -239 160 -242 160 -2 0 -34
-20 -71 -45z"/>
<path d="M3665 5126 c-10 -6 -24 -15 -31 -21 -6 -5 -104 -71 -217 -145 l-206
-135 -1 -243 c0 -192 3 -242 13 -236 11 7 154 104 232 158 17 12 32 24 33 29
2 4 8 7 13 7 6 0 34 18 64 40 30 22 59 40 65 40 5 0 10 3 10 8 0 4 10 13 21
20 19 12 26 10 68 -19 25 -19 51 -37 56 -42 6 -4 53 -40 105 -79 52 -39 97
-74 100 -78 11 -15 51 -31 63 -24 14 8 100 71 179 131 31 24 59 43 63 43 3 0
12 6 20 13 20 19 49 41 74 55 19 11 26 11 41 0 10 -7 89 -62 176 -122 88 -60
161 -112 164 -115 9 -11 89 -61 98 -61 7 0 14 30 13 55 -2 30 -2 212 -1 220 1
6 1 15 0 20 -6 24 -5 62 2 82 4 12 4 24 0 27 -4 2 -7 19 -6 37 1 32 -4 37
-106 104 -131 85 -115 75 -244 163 -58 39 -112 72 -119 72 -6 0 -75 -46 -152
-101 -77 -56 -156 -112 -177 -126 l-36 -24 -74 52 c-40 29 -120 87 -178 129
-90 66 -108 75 -125 66z"/>
<path d="M1669 4060 c-188 -126 -224 -154 -224 -175 -1 -13 -3 -27 -7 -30 -3
-3 -2 -23 2 -45 4 -21 4 -44 0 -50 -4 -7 -4 -27 0 -46 5 -20 4 -34 -2 -34 -5
0 -7 -4 -3 -10 7 -12 10 -128 3 -135 -3 -3 -2 -23 2 -45 4 -21 4 -44 -1 -51
-4 -7 -6 -16 -4 -19 2 -4 6 -73 9 -153 2 -80 6 -150 9 -154 3 -4 8 -32 12 -62
7 -56 9 -70 19 -111 3 -14 8 -36 11 -50 18 -92 55 -222 90 -320 14 -41 28 -79
29 -85 2 -5 7 -19 11 -30 128 -313 251 -540 439 -810 38 -55 76 -106 83 -113
7 -7 13 -17 13 -21 0 -4 9 -17 19 -28 11 -11 50 -58 88 -104 94 -116 96 -118
102 -114 3 2 6 596 5 1322 l0 1318 -90 60 c-50 33 -128 84 -175 114 -46 30
-85 58 -87 63 -2 4 -8 8 -14 8 -5 0 -29 14 -53 30 -24 17 -48 30 -53 30 -5 0
-110 -68 -233 -150z"/>
<path d="M6056 4130 c-66 -44 -120 -80 -121 -80 -1 0 -46 -29 -100 -65 -54
-35 -103 -66 -109 -68 -8 -3 -11 -373 -11 -1325 0 -727 2 -1322 4 -1322 2 0
12 10 23 23 11 12 33 37 49 54 16 18 29 35 29 38 0 3 8 13 18 23 29 31 62 72
62 77 0 3 9 15 19 27 30 32 161 217 161 227 0 5 3 11 8 13 15 7 192 300 192
318 0 6 5 10 10 10 6 0 10 8 10 18 0 9 9 28 20 42 11 14 20 30 20 36 0 6 11
31 24 55 39 71 161 389 182 474 1 6 17 69 35 140 17 72 33 146 35 165 1 19 3
35 4 35 2 0 7 26 16 80 4 22 8 207 10 412 l4 372 -46 30 c-25 17 -49 31 -54
31 -4 0 -10 4 -12 8 -4 11 -329 224 -348 228 -8 2 -69 -32 -134 -76z"/>
<path d="M3640 4145 c-19 -13 -40 -28 -45 -33 -6 -5 -15 -11 -21 -13 -5 -2
-89 -57 -187 -122 l-177 -119 -1 -451 c0 -249 -1 -1005 -2 -1680 -2 -1217 -2
-1228 18 -1246 34 -31 183 -131 193 -131 6 0 12 -4 14 -8 3 -7 88 -63 193
-125 84 -50 184 -105 302 -163 l111 -56 154 80 c169 87 201 104 208 113 3 3
13 8 23 12 18 7 318 196 327 207 11 13 111 80 119 80 5 0 9 53 9 118 0 64 1
122 2 127 1 6 2 12 0 15 -1 4 -1 130 0 200 1 8 0 92 -1 186 -1 95 2 177 5 183
4 6 4 11 -1 11 -9 0 -9 341 0 364 3 8 3 17 0 20 -5 4 -5 59 -3 196 1 8 0 92
-1 186 -1 95 2 177 5 183 4 6 4 11 -1 11 -9 0 -9 341 0 364 3 8 3 17 0 20 -5
5 -5 39 -3 196 1 8 0 69 -1 135 -1 66 0 125 1 130 1 6 2 12 0 15 -5 15 -2 189
4 198 4 7 3 12 -1 12 -9 0 -8 73 1 96 2 6 2 15 -1 18 -8 8 -7 181 1 194 4 7 3
12 -1 12 -9 0 -8 73 1 96 3 7 2 16 -3 18 -4 3 -6 18 -3 34 3 25 -3 33 -54 68
-31 21 -69 45 -83 53 -14 8 -28 17 -31 20 -9 11 -297 201 -304 201 -4 0 -12
-5 -19 -10 -7 -6 -75 -56 -152 -111 -77 -55 -148 -107 -158 -115 -25 -21 -32
-19 -105 34 -36 26 -76 54 -88 62 -13 8 -61 43 -109 78 -47 34 -89 62 -93 62
-4 -1 -23 -12 -42 -25z"/>
</g>
</svg>
