<svg width="182" height="51" viewBox="0 0 182 51" fill="none" xmlns="http://www.w3.org/2000/svg">
    <path fill-rule="evenodd" clip-rule="evenodd" d="M26.7197 20.6693V23.6591L29.6671 21.6659L32.5714 23.6375V20.6693L29.6671 18.7411L26.7197 20.6693Z" fill="#0376E1"/>
    <path fill-rule="evenodd" clip-rule="evenodd" d="M16.2643 14.4718L14.0269 12.8469L11.0796 14.8401V17.8516L14.0269 15.8367L16.2428 17.5049L18.5448 15.8367L21.4921 17.8516V14.8401L18.5448 12.8469L16.2643 14.4718Z" fill="#0376E1"/>
    <path fill-rule="evenodd" clip-rule="evenodd" d="M29.6671 12.8046L26.7197 14.7328V17.7226L29.6671 15.7294L32.5714 17.7226V14.7328L29.6671 12.8046Z" fill="#0376E1"/>
    <path fill-rule="evenodd" clip-rule="evenodd" d="M2.88281 9.81436L5.83016 11.7859V7.45285H11.0794V11.8292L14.0268 9.81436L16.2427 11.4826L18.5446 9.81436L21.492 11.8292V7.45285H26.7198V11.7859L29.6671 9.81436L32.5714 11.7859V0H26.7413V4.83135H21.5135V0H16.3503H11.0364V4.83135H5.83016V0H0V11.7859L2.88281 9.81436Z" fill="#0376E1"/>
    <path fill-rule="evenodd" clip-rule="evenodd" d="M2.88281 21.6647L5.83016 23.6363V20.6465L2.88281 18.7183L0 20.6681V23.6363L2.88281 21.6647Z" fill="#0376E1"/>
    <path fill-rule="evenodd" clip-rule="evenodd" d="M5.83016 17.7226V14.7328L2.88281 12.8046L0 14.7328V17.701L2.88281 15.7294L5.83016 17.7226Z" fill="#0376E1"/>
    <path fill-rule="evenodd" clip-rule="evenodd" d="M29.6671 24.6547L26.7197 26.5829V43.1135C29.8607 39.5604 32.1411 35.2923 32.5499 30.7426V26.5612L29.6671 24.6547Z" fill="#0376E1"/>
    <path fill-rule="evenodd" clip-rule="evenodd" d="M5.83016 26.5829L2.88281 24.6547L0 26.5829V30.7643C0.408756 35.314 2.68919 39.6037 5.83016 43.1785V26.5829Z" fill="#0376E1"/>
    <path fill-rule="evenodd" clip-rule="evenodd" d="M21.4922 26.8864L18.5448 24.9148L16.2859 26.5397L14.027 24.9148L11.0581 26.8864L11.0366 47.9234C12.7147 49.1366 14.4788 50.1982 16.2214 50.9998C18.007 50.1765 19.7926 49.1149 21.4922 47.8584" fill="#0376E1"/>
    <path fill-rule="evenodd" clip-rule="evenodd" d="M21.4917 20.8634L18.5443 18.8919L16.2639 20.5168L14.0265 18.8919L11.0576 20.8634V23.8965L14.0265 21.86L16.2424 23.5282L18.5443 21.86L21.4917 23.8965" fill="#0376E1"/>
    <path d="M80.2979 25.475H69.405C69.5606 27.1532 70.7108 28.9329 73.2682 28.9329C75.0747 28.9329 76.0693 28.0938 76.3805 27.0044H80.0814C79.4589 30.239 77.03 32.2961 73.2006 32.2961C68.248 32.2961 65.3252 28.7502 65.3252 24.0472C65.3252 19.4118 68.4036 15.7983 72.9841 15.7983C76.9691 15.7983 80.2979 18.4442 80.2979 23.4855V25.475ZM76.4684 22.6397C76.4075 20.6773 75.0679 19.1547 72.9232 19.1547C70.6837 19.1547 69.5606 20.772 69.405 22.6397H76.4684Z" fill="#2A2B2C"/>
    <path d="M98.0647 16.2319L88.9783 38.7726H85.027L87.7063 31.7688L81.1367 16.2319H85.5277L89.6954 26.565L93.6466 16.2319H98.0647Z" fill="#2A2B2C"/>
    <path d="M109.972 31.8566L104.465 24.8189V31.8566H100.385V8.57147H104.465V21.5505L109.35 16.1978H114.451L107.976 23.0798L115.013 31.8566H109.972Z" fill="#2A2B2C"/>
    <path d="M114.83 35.2466H115.331C116.542 35.2466 117.448 34.6579 117.448 32.8782V16.2314H121.528V32.7022C121.528 37.0263 119.072 38.7722 116.332 38.7722H114.837V35.2466H114.83ZM117.042 11.1833C117.042 9.87727 118.132 8.75395 119.498 8.75395C120.838 8.75395 121.927 9.87727 121.927 11.1833C121.927 12.5502 120.838 13.6397 119.498 13.6397C118.132 13.6465 117.042 12.557 117.042 11.1833Z" fill="#2A2B2C"/>
    <path d="M124.681 28.1818C124.681 25.0081 127.137 23.4788 130.811 22.457L134.113 21.5231C134.113 19.8111 132.962 19.0938 131.562 19.0938C130.101 19.0938 128.856 19.7502 128.856 21.5231H125.121C125.121 17.3208 128.389 15.7983 131.562 15.7983C134.613 15.7983 138.037 17.2938 138.037 21.6179V31.863H134.174V30.0563C133.05 31.4909 131.095 32.2961 129.194 32.2961C126.982 32.2894 124.681 31.1999 124.681 28.1818ZM133.957 25.9081V24.6021L131.433 25.3194C129.255 25.9419 128.666 26.842 128.666 27.6878C128.666 28.4999 129.289 28.9668 130.188 28.9668C131.623 28.96 133.957 27.7149 133.957 25.9081Z" fill="#2A2B2C"/>
    <path d="M155.621 16.2319L149.647 31.8568H145.472L139.498 16.2319H143.7L147.556 27.032L151.386 16.2319H155.621Z" fill="#2A2B2C"/>
    <path d="M160.959 14.1407H157.658L160.709 9.22108H165.161L160.959 14.1407ZM157.908 16.1978H161.988V31.8565H157.908V16.1978Z" fill="#2A2B2C"/>
    <path d="M176.459 31.8566L170.952 24.8189V31.8566H166.872V8.57147H170.952V21.5505L175.837 16.1978H180.938L174.463 23.0798L181.5 31.8566H176.459Z" fill="#2A2B2C"/>
    <path d="M54.2833 23.6075H52.4768V31.8564H48.2144V10.0668H55.3117C60.6972 10.0668 62.9367 13.4571 62.9367 16.8202C62.9367 19.4323 61.5971 22.0511 58.4848 23.1067L63.4374 31.8564H58.6472L54.2833 23.6075ZM52.4768 19.8112H54.9328C57.4226 19.8112 58.6337 18.6609 58.6337 16.8202C58.6337 14.9796 57.4226 13.8631 54.9328 13.8631H52.4768V19.8112Z" fill="#2A2B2C"/>
</svg>
