<svg width="34" height="51" viewBox="0 0 34 51" fill="none" xmlns="http://www.w3.org/2000/svg">
<g clip-path="url(#clip0_250_2191)">
<path fill-rule="evenodd" clip-rule="evenodd" d="M27.2197 20.6694V23.6592L30.1671 21.666L33.0714 23.6376V20.6694L30.1671 18.7412L27.2197 20.6694Z" fill="#3076DA"/>
<path fill-rule="evenodd" clip-rule="evenodd" d="M16.7643 14.4718L14.5269 12.8469L11.5796 14.8401V17.8516L14.5269 15.8367L16.7428 17.505L19.0448 15.8367L21.9921 17.8516V14.8401L19.0448 12.8469L16.7643 14.4718Z" fill="#3076DA"/>
<path fill-rule="evenodd" clip-rule="evenodd" d="M30.1671 12.8047L27.2197 14.7329V17.7227L30.1671 15.7295L33.0714 17.7227V14.7329L30.1671 12.8047Z" fill="#3076DA"/>
<path fill-rule="evenodd" clip-rule="evenodd" d="M3.38281 9.81436L6.33016 11.7859V7.45285H11.5794V11.8292L14.5268 9.81436L16.7427 11.4826L19.0446 9.81436L21.992 11.8292V7.45285H27.2198V11.7859L30.1671 9.81436L33.0714 11.7859V0H27.2413V4.83135H22.0135V0H16.8503H11.5364V4.83135H6.33016V0H0.5V11.7859L3.38281 9.81436Z" fill="#3076DA"/>
<path fill-rule="evenodd" clip-rule="evenodd" d="M3.38281 21.6647L6.33016 23.6363V20.6465L3.38281 18.7183L0.5 20.6681V23.6363L3.38281 21.6647Z" fill="#3076DA"/>
<path fill-rule="evenodd" clip-rule="evenodd" d="M6.33016 17.7227V14.7329L3.38281 12.8047L0.5 14.7329V17.701L3.38281 15.7295L6.33016 17.7227Z" fill="#3076DA"/>
<path fill-rule="evenodd" clip-rule="evenodd" d="M30.1671 24.6548L27.2197 26.583V43.1136C30.3607 39.5605 32.6411 35.2924 33.0499 30.7427V26.5613L30.1671 24.6548Z" fill="#3076DA"/>
<path fill-rule="evenodd" clip-rule="evenodd" d="M6.33016 26.583L3.38281 24.6548L0.5 26.583V30.7644C0.908756 35.3141 3.18919 39.6038 6.33016 43.1786V26.583Z" fill="#3076DA"/>
<path fill-rule="evenodd" clip-rule="evenodd" d="M21.9922 26.8863L19.0448 24.9148L16.7859 26.5397L14.527 24.9148L11.5581 26.8863L11.5366 47.9233C13.2147 49.1366 14.9788 50.1982 16.7214 50.9998C18.507 50.1765 20.2926 49.1149 21.9922 47.8583" fill="#3076DA"/>
<path fill-rule="evenodd" clip-rule="evenodd" d="M21.9917 20.8634L19.0443 18.8918L16.7639 20.5167L14.5265 18.8918L11.5576 20.8634V23.8965L14.5265 21.86L16.7424 23.5282L19.0443 21.86L21.9917 23.8965" fill="#3076DA"/>
</g>
<defs>
<clipPath id="clip0_250_2191">
<rect width="32.5714" height="51" fill="white" transform="translate(0.5)"/>
</clipPath>
</defs>
</svg>
