<svg xmlns="http://www.w3.org/2000/svg" viewBox="0 0 162.48 525.34"><defs><style>.cls-1{fill:#f8d66e;}.cls-2{fill:#faeab3;}.cls-3{fill:#fdf5d8;}</style></defs><title>Asset 1</title><g id="Layer_2" data-name="Layer 2"><g id="Layer_1-2" data-name="Layer 1"><g id="Layer_1-2-2" data-name="Layer 1-2"><path class="cls-1" d="M0,165.16A165,165,0,0,0,40.09,272.44,164,164,0,0,0,14,361.16c.07,84.92,66.18,156.42,148.44,164.18V474A114,114,0,0,1,78,305.19a165.07,165.07,0,0,0,20,10.75,161.67,161.67,0,0,0,21,7.76,157.88,157.88,0,0,0,38.36,6.23,37,37,0,0,0,5.12,64.89V279a114,114,0,0,1,0-228V0C73.69.47-.07,75.38,0,165.16Z"/><path class="cls-2" d="M45.56,165.94c0,62.57,54.28,112.51,116.85,113.06V256a91.5,91.5,0,0,1,0-183V51C99.84,51.55,45.55,103.37,45.56,165.94Z"/><path class="cls-2" d="M86.41,360.49A91.16,91.16,0,0,1,98,315.94a165.07,165.07,0,0,1-20-10.75A114,114,0,0,0,162.44,474V450.68A91.52,91.52,0,0,1,86.41,360.49Z"/><path class="cls-3" d="M69.33,164.48c0,49.94,43.14,90.67,93.08,91.49V234a69.48,69.48,0,0,1,0-138.92V73C112.47,73.82,69.33,114.52,69.33,164.48Z"/><path class="cls-1" d="M124.67,165c0,20.05,17.7,36.46,37.74,37V128C142.37,128.54,124.66,145,124.67,165Z"/><path class="cls-2" d="M94.41,164.49a69.48,69.48,0,0,0,68,69.46V202a37,37,0,1,1,0-74V95A69.49,69.49,0,0,0,94.41,164.49Z"/><path class="cls-2" d="M140.41,361a37,37,0,0,1,16.91-31.06A157.57,157.57,0,0,1,119,323.7a69.48,69.48,0,0,0,43.48,104.54V394.82A37,37,0,0,1,140.41,361Z"/><path class="cls-3" d="M108.41,360.49A69.17,69.17,0,0,1,119,323.7a161.67,161.67,0,0,1-21-7.76,91.52,91.52,0,0,0,64.46,134.74V428.24A69.53,69.53,0,0,1,108.41,360.49Z"/></g></g></g></svg>